<?xml version="1.0" encoding="utf-8"?>
<svg version="1.1" xmlns:xlink="http://www.w3.org/1999/xlink" width="19px" height="21px" xmlns="http://www.w3.org/2000/svg">
  <g transform="matrix(1 0 0 1 -56 -83 )">
    <path d="M 18.6735395189003 1.2625250501002  C 18.8911798396335 1.40280561122244  19 1.56412825651302  19 1.74649298597194  C 19 1.92885771543086  18.8911798396335 2.09018036072144  18.6735395189003 2.23046092184369  L 5.84364261168385 10.5  L 18.6735395189003 18.7695390781563  C 18.8911798396335 18.9098196392786  19 19.0711422845691  19 19.2535070140281  C 19 19.435871743487  18.8911798396335 19.5971943887776  18.6735395189003 19.7374749498998  L 17.0412371134021 20.7895791583166  C 16.823596792669 20.9298597194389  16.5733104238259 21  16.2903780068729 21  C 16.0074455899198 21  15.7571592210767 20.9298597194389  15.5395189003436 20.7895791583166  L 0.326460481099656 10.9839679358717  C 0.108820160366552 10.8436873747495  0 10.6823647294589  0 10.5  C 0 10.3176352705411  0.108820160366552 10.1563126252505  0.326460481099656 10.0160320641283  L 15.5395189003436 0.210420841683367  C 15.7571592210767 0.0701402805611215  16.0074455899198 0  16.2903780068729 0  C 16.5733104238259 0  16.823596792669 0.0701402805611215  17.0412371134021 0.210420841683367  L 18.6735395189003 1.2625250501002  Z " fill-rule="nonzero" fill="#ffffff" stroke="none" transform="matrix(1 0 0 1 56 83 )" />
  </g>
</svg>