<?xml version="1.0" encoding="utf-8"?>
<svg version="1.1" xmlns:xlink="http://www.w3.org/1999/xlink" width="34px" height="26px" xmlns="http://www.w3.org/2000/svg">
  <g transform="matrix(1 0 0 1 -663 -390 )">
    <path d="M 21.8571428571429 20.36328125  C 22.0215773809524 20.36328125  22.1670386904762 20.3068576388889  22.2935267857143 20.1940104166667  L 25.0636160714286 17.72265625  C 25.1901041666667 17.6098090277778  25.2533482142857 17.4800347222222  25.2533482142857 17.3333333333333  C 25.2533482142857 17.1866319444444  25.1901041666667 17.0568576388889  25.0636160714286 16.9440104166667  L 20.6428571428571 13  L 25.0636160714286 9.05598958333333  C 25.1901041666667 8.94314236111111  25.2533482142857 8.81336805555556  25.2533482142857 8.66666666666667  C 25.2533482142857 8.51996527777778  25.1901041666667 8.39019097222222  25.0636160714286 8.27734375  L 22.2935267857143 5.80598958333333  C 22.1670386904762 5.69314236111111  22.0215773809524 5.63671875  21.8571428571429 5.63671875  C 21.6927083333333 5.63671875  21.5472470238095 5.69314236111111  21.4207589285714 5.80598958333333  L 17 9.75  L 12.5792410714286 5.80598958333333  C 12.4527529761905 5.69314236111111  12.3072916666667 5.63671875  12.1428571428571 5.63671875  C 11.9784226190476 5.63671875  11.8329613095238 5.69314236111111  11.7064732142857 5.80598958333333  L 8.93638392857143 8.27734375  C 8.80989583333333 8.39019097222222  8.74665178571429 8.51996527777778  8.74665178571429 8.66666666666667  C 8.74665178571429 8.81336805555556  8.80989583333333 8.94314236111111  8.93638392857143 9.05598958333333  L 13.3571428571429 13  L 8.93638392857143 16.9440104166667  C 8.80989583333333 17.0568576388889  8.74665178571429 17.1866319444444  8.74665178571429 17.3333333333333  C 8.74665178571429 17.4800347222222  8.80989583333333 17.6098090277778  8.93638392857143 17.72265625  L 11.7064732142857 20.1940104166667  C 11.8329613095238 20.3068576388889  11.9784226190476 20.36328125  12.1428571428571 20.36328125  C 12.3072916666667 20.36328125  12.4527529761905 20.3068576388889  12.5792410714286 20.1940104166667  L 17 16.25  L 21.4207589285714 20.1940104166667  C 21.5472470238095 20.3068576388889  21.6927083333333 20.36328125  21.8571428571429 20.36328125  Z M 33.1082589285714 0.795572916666668  C 33.7027529761905 1.32595486111111  34 1.96354166666667  34 2.70833333333333  L 34 23.2916666666667  C 34 24.0364583333333  33.7027529761905 24.6740451388889  33.1082589285714 25.2044270833333  C 32.5137648809524 25.7348090277778  31.7991071428571 26  30.9642857142857 26  L 3.03571428571429 26  C 2.20089285714286 26  1.48623511904762 25.7348090277778  0.891741071428571 25.2044270833333  C 0.297247023809524 24.6740451388889  0 24.0364583333333  0 23.2916666666667  L 0 2.70833333333333  C 0 1.96354166666667  0.297247023809524 1.32595486111111  0.891741071428571 0.795572916666668  C 1.48623511904762 0.26519097222222  2.20089285714286 0  3.03571428571429 0  L 30.9642857142857 0  C 31.7991071428571 0  32.5137648809524 0.26519097222222  33.1082589285714 0.795572916666668  Z " fill-rule="nonzero" fill="#c00017" stroke="none" fill-opacity="0.850980392156863" transform="matrix(1 0 0 1 663 390 )" />
  </g>
</svg>