<?xml version="1.0" encoding="utf-8"?>
<svg version="1.1" xmlns:xlink="http://www.w3.org/1999/xlink" width="29px" height="22px" xmlns="http://www.w3.org/2000/svg">
  <g transform="matrix(1 0 0 1 -50 -237 )">
    <path d="M 19.1822916666667 12.875  C 19.2829861111111 12.75  19.3333333333333 12.625  19.3333333333333 12.5  C 19.3333333333333 12.3541666666667  19.2880208333333 12.234375  19.1973958333333 12.140625  C 19.1067708333333 12.046875  18.9909722222222 12  18.85 12  L 15.4666666666667 12  L 15.4666666666667 6.5  C 15.4666666666667 6.36458333333333  15.4188368055556 6.24739583333333  15.3231770833333 6.1484375  C 15.2275173611111 6.04947916666667  15.1142361111111 6  14.9833333333333 6  L 12.0833333333333 6  C 11.9524305555556 6  11.8391493055556 6.04947916666667  11.7434895833333 6.1484375  C 11.6478298611111 6.24739583333333  11.6 6.36458333333333  11.6 6.5  L 11.6 12  L 8.21666666666667 12  C 8.08576388888889 12  7.97248263888889 12.0494791666667  7.87682291666667 12.1484375  C 7.78116319444445 12.2473958333333  7.73333333333333 12.3645833333333  7.73333333333333 12.5  C 7.73333333333333 12.6458333333333  7.77864583333333 12.765625  7.86927083333333 12.859375  L 13.1859375 18.359375  C 13.2765625 18.453125  13.3923611111111 18.5  13.5333333333333 18.5  C 13.6743055555556 18.5  13.7901041666667 18.453125  13.8807291666667 18.359375  L 19.1822916666667 12.875  Z M 27.7388020833333 12.2734375  C 28.5796006944444 13.3619791666667  29 14.6041666666667  29 16  C 29 17.65625  28.43359375 19.0703125  27.30078125 20.2421875  C 26.16796875 21.4140625  24.8010416666667 22  23.2 22  L 6.76666666666667 22  C 4.90381944444444 22  3.31032986111111 21.3151041666667  1.98619791666667 19.9453125  C 0.662065972222222 18.5755208333333  0 16.9270833333333  0 15  C 0 13.6458333333333  0.352430555555556 12.3958333333333  1.05729166666667 11.25  C 1.76215277777778 10.1041666666667  2.70868055555556 9.24479166666666  3.896875 8.671875  C 3.87673611111111 8.359375  3.86666666666667 8.13541666666667  3.86666666666667 8  C 3.86666666666667 5.79166666666667  4.621875 3.90625  6.13229166666667 2.34375  C 7.64270833333333 0.78125  9.46527777777778 0  11.6 0  C 13.1708333333333 0  14.6082465277778 0.453125000000001  15.9122395833333 1.359375  C 17.2162326388889 2.265625  18.1652777777778 3.46875  18.759375 4.96875  C 19.4743055555556 4.32291666666667  20.3100694444444 4  21.2666666666667 4  C 22.3340277777778 4  23.2453125 4.390625  24.0005208333333 5.171875  C 24.7557291666667 5.953125  25.1333333333333 6.89583333333333  25.1333333333333 8  C 25.1333333333333 8.79166666666666  24.9269097222222 9.51041666666667  24.5140625 10.15625  C 25.8230902777778 10.4791666666667  26.8980034722222 11.1848958333333  27.7388020833333 12.2734375  Z " fill-rule="nonzero" fill="#ffffff" stroke="none" transform="matrix(1 0 0 1 50 237 )" />
  </g>
</svg>