<?xml version="1.0" encoding="utf-8"?>
<svg version="1.1" xmlns:xlink="http://www.w3.org/1999/xlink" width="42px" height="31px" xmlns="http://www.w3.org/2000/svg">
  <g transform="matrix(1 0 0 1 -540 -387 )">
    <path d="M 27.78125 18.1420454545455  C 27.9270833333333 17.9659090909091  28 17.7897727272727  28 17.6136363636364  C 28 17.4081439393939  27.934375 17.2393465909091  27.803125 17.1072443181818  C 27.671875 16.9751420454545  27.5041666666667 16.9090909090909  27.3 16.9090909090909  L 22.4 16.9090909090909  L 22.4 9.15909090909091  C 22.4 8.96827651515151  22.3307291666667 8.80314867424242  22.1921875 8.66370738636363  C 22.0536458333333 8.52426609848485  21.8895833333333 8.45454545454545  21.7 8.45454545454545  L 17.5 8.45454545454545  C 17.3104166666667 8.45454545454545  17.1463541666667 8.52426609848485  17.0078125 8.66370738636363  C 16.8692708333333 8.80314867424242  16.8 8.96827651515151  16.8 9.15909090909091  L 16.8 16.9090909090909  L 11.9 16.9090909090909  C 11.7104166666667 16.9090909090909  11.5463541666667 16.9788115530303  11.4078125 17.1182528409091  C 11.2692708333333 17.2576941287879  11.2 17.422821969697  11.2 17.6136363636364  C 11.2 17.8191287878788  11.265625 17.9879261363636  11.396875 18.1200284090909  L 19.096875 25.8700284090909  C 19.228125 26.0021306818182  19.3958333333333 26.0681818181818  19.6 26.0681818181818  C 19.8041666666667 26.0681818181818  19.971875 26.0021306818182  20.103125 25.8700284090909  L 27.78125 18.1420454545455  Z M 40.1734375 17.2943892045455  C 41.3911458333333 18.8282433712121  42 20.5785984848485  42 22.5454545454545  C 42 24.8792613636364  41.1796875 26.8718039772727  39.5390625 28.5230823863636  C 37.8984375 30.1743607954545  35.91875 31  33.6 31  L 9.8 31  C 7.10208333333333 31  4.79427083333333 30.0349195075758  2.8765625 28.1047585227273  C 0.958854166666667 26.1745975378788  0 23.8517992424242  0 21.1363636363636  C 0 19.2282196969697  0.510416666666667 17.4668560606061  1.53125 15.8522727272727  C 2.55208333333333 14.2376893939394  3.92291666666667 13.0267518939394  5.64375 12.2194602272727  C 5.61458333333333 11.7791193181818  5.6 11.4635416666667  5.6 11.2727272727273  C 5.6 8.16098484848485  6.69375 5.50426136363637  8.88125 3.30255681818182  C 11.06875 1.10085227272727  13.7083333333333 0  16.8 0  C 19.075 0  21.1567708333333 0.638494318181819  23.0453125 1.91548295454545  C 24.9338541666667 3.19247159090909  26.3083333333333 4.88778409090909  27.16875 7.00142045454545  C 28.2041666666667 6.09138257575757  29.4145833333333 5.63636363636363  30.8 5.63636363636363  C 32.3458333333333 5.63636363636363  33.665625 6.18678977272727  34.759375 7.28764204545455  C 35.853125 8.38849431818182  36.4 9.71685606060606  36.4 11.2727272727273  C 36.4 12.3882575757576  36.1010416666667 13.4010416666667  35.503125 14.3110795454545  C 37.3989583333333 14.7660984848485  38.9557291666667 15.7605350378788  40.1734375 17.2943892045455  Z " fill-rule="nonzero" fill="#7f7f7f" stroke="none" transform="matrix(1 0 0 1 540 387 )" />
  </g>
</svg>