<?xml version="1.0" encoding="utf-8"?>
<svg version="1.1" xmlns:xlink="http://www.w3.org/1999/xlink" width="31px" height="24px" xmlns="http://www.w3.org/2000/svg">
  <g transform="matrix(1 0 0 1 -46 -605 )">
    <path d="M 12.6135204081633 21.946875  C 12.6003401360544 22.015625  12.6135204081633 22.1  12.6530612244898 22.2  C 12.6530612244898 22.25  12.6596513605442 22.375  12.6728316326531 22.575  C 12.6860119047619 22.775  12.6893069727891 22.940625  12.6827168367347 23.071875  C 12.6761267006803 23.203125  12.656356292517 23.35  12.6234056122449 23.5125  C 12.5904549319728 23.675  12.5245535714286 23.796875  12.4257015306122 23.878125  C 12.3268494897959 23.959375  12.1917517006803 24  12.0204081632653 24  L 5.69387755102041 24  C 4.12542517006803 24  2.7843324829932 23.471875  1.67059948979592 22.415625  C 0.556866496598639 21.359375  0 20.0875  0 18.6  L 0 5.4  C 0 3.9125  0.556866496598639 2.640625  1.67059948979592 1.584375  C 2.7843324829932 0.528124999999997  4.12542517006803 0  5.69387755102041 0  L 12.0204081632653 0  C 12.1917517006803 0  12.3400297619048 0.0593749999999966  12.4652423469388 0.178125000000001  C 12.5904549319728 0.296874999999999  12.6530612244898 0.437499999999999  12.6530612244898 0.600000000000001  C 12.6530612244898 0.649999999999998  12.6596513605442 0.774999999999999  12.6728316326531 0.975000000000001  C 12.6860119047619 1.175  12.6893069727891 1.340625  12.6827168367347 1.471875  C 12.6761267006803 1.603125  12.656356292517 1.75  12.6234056122449 1.9125  C 12.5904549319728 2.075  12.5245535714286 2.196875  12.4257015306122 2.278125  C 12.3268494897959 2.359375  12.1917517006803 2.4  12.0204081632653 2.4  L 5.69387755102041 2.4  C 4.82397959183673 2.4  4.07929421768708 2.69375  3.45982142857143 3.28125  C 2.84034863945578 3.86875  2.53061224489796 4.575  3 5.4  L 3 18.6  C 2.53061224489796 19.425  2.84034863945578 20.13125  3.45982142857143 20.71875  C 4.07929421768708 21.30625  4.82397959183673 21.6  5.69387755102041 21.6  L 11.3877551020408 21.6  L 11.6052295918367 21.6  L 11.8622448979592 21.6  C 11.8622448979592 21.6  11.938031462585 21.60625  12.0896045918367 21.61875  C 12.2411777210884 21.63125  12.3169642857143 21.65  12.3169642857143 21.675  C 12.3169642857143 21.7  12.3696853741497 21.734375  12.4751275510204 21.778125  C 12.5805697278912 21.821875  12.6267006802721 21.878125  12.6135204081633 21.946875  Z M 30.624362244898 11.15625  C 30.874787414966 11.39375  31 11.675  31 12  C 31 12.325  30.874787414966 12.60625  30.624362244898 12.84375  L 19.8692602040816 23.04375  C 19.6188350340136 23.28125  19.3222789115646 23.4  18.9795918367347 23.4  C 18.6369047619048 23.4  18.3403486394558 23.28125  18.0899234693878 23.04375  C 17.8394982993197 22.80625  17.7142857142857 22.525  17.7142857142857 22.2  L 17.7142857142857 16.8  L 8.85714285714286 16.8  C 8.51445578231293 16.8  8.21789965986395 16.68125  7.96747448979592 16.44375  C 7.71704931972789 16.20625  7.59183673469388 15.925  7.59183673469388 15.6  L 7.59183673469388 8.4  C 7.59183673469388 8.075  7.71704931972789 7.79375  7.96747448979592 7.55625  C 8.21789965986395 7.31875  8.51445578231293 7.2  8.85714285714286 7.2  L 17.7142857142857 7.2  L 17.7142857142857 1.8  C 17.7142857142857 1.475  17.8394982993197 1.19375  18.0899234693878 0.956249999999999  C 18.3403486394558 0.718749999999999  18.6369047619048 0.600000000000001  18.9795918367347 0.600000000000001  C 19.3222789115646 0.600000000000001  19.6188350340136 0.718749999999999  19.8692602040816 0.956249999999999  L 30.624362244898 11.15625  Z " fill-rule="nonzero" fill="#ffffff" stroke="none" transform="matrix(1 0 0 1 46 605 )" />
  </g>
</svg>