<?xml version="1.0" encoding="utf-8"?>
<svg version="1.1" xmlns:xlink="http://www.w3.org/1999/xlink" width="50px" height="50px" xmlns="http://www.w3.org/2000/svg">
  <g transform="matrix(1 0 0 1 -356 -257 )">
    <path d="M 41.0481770833333 28.5481770833333  C 41.4605034722222 28.1358506944444  41.6666666666667 27.6475694444444  41.6666666666667 27.0833333333333  L 41.6666666666667 22.9166666666667  C 41.6666666666667 22.3524305555556  41.4605034722222 21.8641493055556  41.0481770833333 21.4518229166667  C 40.6358506944445 21.0394965277778  40.1475694444445 20.8333333333333  39.5833333333333 21  L 29 21  L 29 10.4166666666667  C 29.1666666666667 9.85243055555555  28.9605034722222 9.36414930555555  28.5481770833333 8.95182291666667  C 28.1358506944444 8.53949652777777  27.6475694444444 8.33333333333333  27.0833333333333 8.33333333333333  L 22.9166666666667 8.33333333333333  C 22.3524305555556 8.33333333333333  21.8641493055556 8.53949652777777  21.4518229166667 8.95182291666667  C 21.0394965277778 9.36414930555555  20.8333333333333 9.85243055555555  21 10.4166666666667  L 21 21  L 10.4166666666667 21  C 9.85243055555556 20.8333333333333  9.36414930555556 21.0394965277778  8.95182291666667 21.4518229166667  C 8.53949652777778 21.8641493055556  8.33333333333333 22.3524305555556  8.33333333333333 22.9166666666667  L 8.33333333333333 27.0833333333333  C 8.33333333333333 27.6475694444444  8.53949652777778 28.1358506944444  8.95182291666667 28.5481770833333  C 9.36414930555556 28.9605034722222  9.85243055555556 29.1666666666667  10.4166666666667 29  L 21 29  L 21 39.5833333333333  C 20.8333333333333 40.1475694444444  21.0394965277778 40.6358506944444  21.4518229166667 41.0481770833333  C 21.8641493055556 41.4605034722222  22.3524305555556 41.6666666666667  22.9166666666667 41.6666666666667  L 27.0833333333333 41.6666666666667  C 27.6475694444444 41.6666666666667  28.1358506944444 41.4605034722222  28.5481770833333 41.0481770833333  C 28.9605034722222 40.6358506944444  29.1666666666667 40.1475694444444  29 39.5833333333333  L 29 29  L 39.5833333333333 29  C 40.1475694444445 29.1666666666667  40.6358506944445 28.9605034722222  41.0481770833333 28.5481770833333  Z M 47.2493489583333 2.75065104166667  C 49.0831163194444 4.58441840277777  50 6.79253472222222  50 9.375  L 50 40.625  C 50 43.2074652777778  49.0831163194444 45.4155815972222  47.2493489583333 47.2493489583333  C 45.4155815972222 49.0831163194444  43.2074652777778 50  40.625 50  L 9.375 50  C 6.79253472222222 50  4.58441840277778 49.0831163194444  2.75065104166667 47.2493489583333  C 0.916883680555555 45.4155815972222  0 43.2074652777778  0 40.625  L 0 9.375  C 0 6.79253472222222  0.916883680555555 4.58441840277777  2.75065104166667 2.75065104166667  C 4.58441840277778 0.916883680555552  6.79253472222222 0  9.375 0  L 40.625 0  C 43.2074652777778 0  45.4155815972222 0.916883680555552  47.2493489583333 2.75065104166667  Z " fill-rule="nonzero" fill="#027db4" stroke="none" transform="matrix(1 0 0 1 356 257 )" />
  </g>
</svg>