<?xml version="1.0" encoding="utf-8"?>
<svg version="1.1" xmlns:xlink="http://www.w3.org/1999/xlink" width="45px" height="31px" xmlns="http://www.w3.org/2000/svg">
  <g transform="matrix(1 0 0 1 -326 -387 )">
    <path d="M 29.77734375 16.6999289772727  C 29.92578125 16.5604876893939  30 16.3953598484848  30 16.2045454545455  C 30 15.999053030303  29.9296875 15.8302556818182  29.7890625 15.6981534090909  L 21.5390625 7.94815340909091  C 21.3984375 7.81605113636363  21.21875 7.75  21 7.75  C 20.78125 7.75  20.6015625 7.81605113636363  20.4609375 7.94815340909091  L 12.234375 15.6761363636364  C 12.078125 15.8522727272727  12 16.0284090909091  12 16.2045454545455  C 12 16.4100378787879  12.0703125 16.5788352272727  12.2109375 16.7109375  C 12.3515625 16.8430397727273  12.53125 16.9090909090909  12.75 16.9090909090909  L 18 16.9090909090909  L 18 24.6590909090909  C 18 24.8499053030303  18.07421875 25.0150331439394  18.22265625 25.1544744318182  C 18.37109375 25.293915719697  18.546875 25.3636363636364  18.75 25.3636363636364  L 23.25 25.3636363636364  C 23.453125 25.3636363636364  23.62890625 25.293915719697  23.77734375 25.1544744318182  C 23.92578125 25.0150331439394  24 24.8499053030303  24 24.6590909090909  L 24 16.9090909090909  L 29.25 16.9090909090909  C 29.453125 16.9090909090909  29.62890625 16.8393702651515  29.77734375 16.6999289772727  Z M 43.04296875 17.2943892045455  C 44.34765625 18.8282433712121  45 20.5785984848485  45 22.5454545454545  C 45 24.8792613636364  44.12109375 26.8718039772727  42.36328125 28.5230823863636  C 40.60546875 30.1743607954545  38.484375 31  36 31  L 10.5 31  C 7.609375 31  5.13671875 30.0349195075758  3.08203125 28.1047585227273  C 1.02734375 26.1745975378788  0 23.8517992424242  0 21.1363636363636  C 0 19.2282196969697  0.546875 17.4668560606061  1.640625 15.8522727272727  C 2.734375 14.2376893939394  4.203125 13.0267518939394  6.046875 12.2194602272727  C 6.015625 11.7791193181818  6 11.4635416666667  6 11.2727272727273  C 6 8.16098484848485  7.171875 5.50426136363637  9.515625 3.30255681818182  C 11.859375 1.10085227272727  14.6875 0  18 0  C 20.4375 0  22.66796875 0.638494318181819  24.69140625 1.91548295454545  C 26.71484375 3.19247159090909  28.1875 4.88778409090909  29.109375 7.00142045454545  C 30.21875 6.09138257575757  31.515625 5.63636363636363  33 5.63636363636363  C 34.65625 5.63636363636363  36.0703125 6.18678977272727  37.2421875 7.28764204545455  C 38.4140625 8.38849431818182  39 9.71685606060606  39 11.2727272727273  C 39 12.3882575757576  38.6796875 13.4010416666667  38.0390625 14.3110795454545  C 40.0703125 14.7660984848485  41.73828125 15.7605350378788  43.04296875 17.2943892045455  Z " fill-rule="nonzero" fill="#7f7f7f" stroke="none" transform="matrix(1 0 0 1 326 387 )" />
  </g>
</svg>